<svg width="0" height="0"><symbol xmlns="http://www.w3.org/2000/svg" id="arrow-down" fill="none" viewBox="0 0 12 8"><path fill="#000" fill-opacity=".24" d="M.354 2.058a.5.5 0 0 1 0-.707l.703-.703a.5.5 0 0 1 .707 0l3.883 3.875a.5.5 0 0 0 .706 0L10.236.648a.5.5 0 0 1 .707 0l.703.703a.5.5 0 0 1 0 .707L6.354 7.351a.5.5 0 0 1-.708 0L.354 2.058Z"/></symbol><symbol xmlns="http://www.w3.org/2000/svg" id="folder" fill="none" viewBox="0 0 14 12"><path fill="#CCC" fill-rule="evenodd" d="M.71 1.97 2.082.523A.4.4 0 0 1 2.372.4h2.462a.4.4 0 0 1 .283.117l1.366 1.366A.4.4 0 0 0 6.766 2h5.668a.4.4 0 0 1 .283.117l.566.566a.4.4 0 0 1 .117.283v7.668a.4.4 0 0 1-.117.283l-.566.566a.4.4 0 0 1-.283.117H1.59a.4.4 0 0 1-.31-.147l-.59-.723a.4.4 0 0 1-.09-.253V2.245a.4.4 0 0 1 .11-.276Z" clip-rule="evenodd"/></symbol><symbol xmlns="http://www.w3.org/2000/svg" id="plus" fill="none" viewBox="0 0 20 20"><path fill="#5558FA" d="M11 5a1 1 0 1 0-2 0v4H5a1 1 0 1 0 0 2h4v4a1 1 0 0 0 2 0v-4h4a1 1 0 0 0 0-2h-4V5Z"/></symbol><symbol xmlns="http://www.w3.org/2000/svg" id="trash" fill="none" viewBox="0 0 20 19"><path fill="#CCC" d="m5.453 16.652-.895-8.5a.5.5 0 0 1 .498-.552h9.889a.5.5 0 0 1 .497.552l-.895 8.5a.5.5 0 0 1-.497.448h-8.1a.5.5 0 0 1-.497-.448ZM17 5.7H3a.5.5 0 0 1-.5-.5v-.9a.5.5 0 0 1 .5-.5h2.355a.5.5 0 0 0 .268-.078l2.755-1.745a.5.5 0 0 1 .267-.077h2.71a.5.5 0 0 1 .268.077l2.755 1.745a.5.5 0 0 0 .267.078H17a.5.5 0 0 1 .5.5v.9a.5.5 0 0 1-.5.5Z"/></symbol></svg>