<svg width="0" height="0"><symbol xmlns="http://www.w3.org/2000/svg" id="arrow-down" fill="none" viewBox="0 0 12 8"><path fill="#000" fill-opacity=".24" d="M.354 2.058a.5.5 0 0 1 0-.707l.703-.703a.5.5 0 0 1 .707 0l3.883 3.875a.5.5 0 0 0 .706 0L10.236.648a.5.5 0 0 1 .707 0l.703.703a.5.5 0 0 1 0 .707L6.354 7.351a.5.5 0 0 1-.708 0L.354 2.058Z"/></symbol><symbol xmlns="http://www.w3.org/2000/svg" id="close" fill="none" viewBox="0 0 20 20"><path fill="#B3B3B3" d="M5.404 4.697a.5.5 0 0 1 .707 0L10 8.585l3.888-3.89a.5.5 0 0 1 .707 0l.707.708a.5.5 0 0 1 0 .707L11.414 10l3.89 3.889a.5.5 0 0 1 0 .707l-.708.707a.5.5 0 0 1-.707 0L10 11.414l-3.889 3.89a.5.5 0 0 1-.707 0l-.707-.708a.5.5 0 0 1 0-.707l3.889-3.89-3.89-3.888a.5.5 0 0 1 0-.707l.708-.707Z"/></symbol><symbol xmlns="http://www.w3.org/2000/svg" id="dot" fill="none" viewBox="0 0 20 24"><g filter="url(#a)"><rect width="16" height="16" fill="#5558FA" rx="8" shape-rendering="crispEdges"/><circle cx="8" cy="8" r="1.6" fill="#fff"/></g><defs><filter id="a" width="24" height="24" x="-4" y="0" color-interpolation-filters="sRGB" filterUnits="userSpaceOnUse"><feFlood flood-opacity="0" result="BackgroundImageFix"/><feColorMatrix in="SourceAlpha" result="hardAlpha" values="0 0 0 0 0 0 0 0 0 0 0 0 0 0 0 0 0 0 127 0"/><feOffset dy="4"/><feGaussianBlur stdDeviation="2"/><feComposite in2="hardAlpha" operator="out"/><feColorMatrix values="0 0 0 0 0 0 0 0 0 0 0 0 0 0 0 0 0 0 0.25 0"/><feBlend in2="BackgroundImageFix" result="effect1_dropShadow_3217_34110"/><feBlend in="SourceGraphic" in2="effect1_dropShadow_3217_34110" result="shape"/></filter></defs></symbol><symbol xmlns="http://www.w3.org/2000/svg" id="failure" fill="none" viewBox="0 0 48 48"><path fill="#E84E58" fill-rule="evenodd" d="M24 4.8C13.4 4.8 4.8 13.4 4.8 24c0 10.598 8.6 19.2 19.2 19.2 10.598 0 19.2-8.602 19.2-19.2 0-10.6-8.602-19.2-19.2-19.2Zm-7.59 10.683a.826.826 0 0 1 1.167 0L24 21.907l6.422-6.422a.826.826 0 0 1 1.168 0l1.168 1.167a.826.826 0 0 1 0 1.168l-6.423 6.423 6.423 6.422a.826.826 0 0 1 0 1.168L31.59 33a.826.826 0 0 1-1.168 0L24 26.577 17.577 33a.826.826 0 0 1-1.167 0l-1.168-1.168a.826.826 0 0 1 0-1.168l6.422-6.422-6.422-6.423a.826.826 0 0 1 0-1.168l1.168-1.168Z" clip-rule="evenodd"/></symbol><symbol xmlns="http://www.w3.org/2000/svg" id="folder" fill="none" viewBox="0 0 14 12"><path fill="currentColor" fill-rule="evenodd" d="M.71 1.97 2.082.523A.4.4 0 0 1 2.372.4h2.462a.4.4 0 0 1 .283.117l1.366 1.366A.4.4 0 0 0 6.766 2h5.668a.4.4 0 0 1 .283.117l.566.566a.4.4 0 0 1 .117.283v7.668a.4.4 0 0 1-.117.283l-.566.566a.4.4 0 0 1-.283.117H1.59a.4.4 0 0 1-.31-.147l-.59-.723a.4.4 0 0 1-.09-.253V2.245a.4.4 0 0 1 .11-.276Z" clip-rule="evenodd"/></symbol><symbol xmlns="http://www.w3.org/2000/svg" id="plus" fill="none" viewBox="0 0 20 20"><path fill="#5558FA" d="M11 5a1 1 0 1 0-2 0v4H5a1 1 0 1 0 0 2h4v4a1 1 0 0 0 2 0v-4h4a1 1 0 0 0 0-2h-4V5Z"/></symbol><symbol xmlns="http://www.w3.org/2000/svg" id="success" fill="none" viewBox="0 0 48 48"><path fill="#05AE71" fill-rule="evenodd" d="M4.8 24C4.8 13.402 13.402 4.8 24 4.8c10.599 0 19.2 8.602 19.2 19.2 0 10.599-8.602 19.2-19.2 19.2-10.598 0-19.2-8.602-19.2-19.2Zm26.61-7.01a1.062 1.062 0 0 0-1.404.17l-8.11 9.371-4.181-3.757a1.063 1.063 0 0 0-1.413 0l-1.57 1.41a.988.988 0 0 0 0 1.479l5.863 5.268c.192.173.445.27.707.27h1.605c.307 0 .599-.133.796-.36l9.654-11.155a.989.989 0 0 0-.189-1.466l-1.759-1.23Z" clip-rule="evenodd"/></symbol><symbol xmlns="http://www.w3.org/2000/svg" id="trash" fill="none" viewBox="0 0 20 19"><path fill="currentColor" d="m5.453 16.652-.895-8.5a.5.5 0 0 1 .498-.552h9.889a.5.5 0 0 1 .497.552l-.895 8.5a.5.5 0 0 1-.497.448h-8.1a.5.5 0 0 1-.497-.448ZM17 5.7H3a.5.5 0 0 1-.5-.5v-.9a.5.5 0 0 1 .5-.5h2.355a.5.5 0 0 0 .268-.078l2.755-1.745a.5.5 0 0 1 .267-.077h2.71a.5.5 0 0 1 .268.077l2.755 1.745a.5.5 0 0 0 .267.078H17a.5.5 0 0 1 .5.5v.9a.5.5 0 0 1-.5.5Z"/></symbol></svg>